<svg width="83" height="13" viewBox="0 0 83 13" fill="none" xmlns="http://www.w3.org/2000/svg">
<path d="M4.212 3.188C4.116 3.596 3.924 4.148 3.768 4.508L4.56 4.676H2.208L2.808 4.508C2.76 4.148 2.604 3.596 2.4 3.188H4.212ZM4.056 7.976H6.036V6.776H4.056V5.852H6.144V4.676H4.932C5.1 4.316 5.292 3.836 5.508 3.32L4.812 3.188H6.048V2.024H4.056V0.931999H2.676V2.024H0.66V3.188H2.004L1.272 3.356C1.44 3.764 1.584 4.28 1.632 4.676H0.528V5.852H2.676V6.776H0.564V7.976H2.388C1.836 8.876 1.008 9.776 0.228 10.292C0.528 10.52 0.936 10.988 1.152 11.3C1.668 10.88 2.208 10.28 2.676 9.608V12.02H4.056V9.464C4.404 9.8 4.74 10.16 4.932 10.4L5.76 9.38C5.484 9.164 4.488 8.372 4.056 8.072V7.976ZM11.592 4.784H7.848V3.104C9.108 2.84 10.476 2.468 11.532 2L10.392 0.956C9.66 1.352 8.472 1.736 7.332 2.012L6.504 1.784V5.936C6.504 7.592 6.36 9.632 4.98 11.096C5.304 11.264 5.82 11.756 6 12.068C7.584 10.424 7.836 7.892 7.848 6.104H9.072V11.972H10.452V6.104H11.592V4.784ZM23.4 8.048H18.684V7.376C19.176 7.028 19.62 6.596 20.028 6.104C20.808 6.656 21.66 7.304 22.104 7.76L23.112 6.68C22.584 6.188 21.576 5.504 20.76 4.988C20.94 4.628 21.108 4.244 21.24 3.836L19.968 3.572H23.052V2.216H18.684V0.848H17.208V2.216H12.948V3.572H15.192C14.748 4.964 13.824 6.164 12.66 6.86C12.996 7.088 13.596 7.568 13.848 7.832C14.508 7.34 15.12 6.692 15.636 5.924C16.08 6.248 16.536 6.608 16.776 6.86L17.628 5.864C17.328 5.588 16.752 5.18 16.248 4.856C16.416 4.532 16.548 4.184 16.668 3.836L15.528 3.572H19.788C19.38 4.904 18.456 5.972 17.232 6.62C17.448 6.752 17.796 7.04 18.072 7.292H17.208V8.048H12.624V9.416H17.208V12.032H18.684V9.416H23.4V8.048ZM34.272 0.92C32.808 1.352 30.372 1.676 28.236 1.82C28.38 2.12 28.56 2.636 28.608 2.96C30.792 2.84 33.372 2.552 35.22 2.036L34.272 0.92ZM33.912 6.044C34.404 5.336 35.028 4.22 35.544 3.2L34.188 2.708C33.888 3.62 33.276 4.844 32.808 5.6L33.912 6.044ZM32.448 5.096C32.424 4.496 32.184 3.608 31.896 2.912L30.708 3.14C30.972 3.86 31.176 4.784 31.188 5.348L32.448 5.096ZM30.348 5.456C30.24 4.844 29.892 3.908 29.532 3.212L28.404 3.5C28.74 4.244 29.04 5.204 29.136 5.804L30.348 5.456ZM28.008 5.864L27.036 6.14V4.412H28.128V3.104H27.036V0.848H25.74V3.104H24.48V4.412H25.74V6.488C25.2 6.62 24.696 6.752 24.288 6.836L24.6 8.204C24.948 8.108 25.344 8 25.74 7.88V10.532C25.74 10.688 25.68 10.736 25.536 10.736C25.392 10.748 24.972 10.748 24.54 10.724C24.708 11.108 24.864 11.696 24.9 12.044C25.692 12.056 26.196 12.008 26.568 11.78C26.928 11.552 27.036 11.192 27.036 10.532V7.496C27.42 7.388 27.804 7.268 28.188 7.148L28.008 5.864ZM35.448 8.036V6.8H32.556V5.588H31.212V6.8H28.392V8.036H30.456C29.784 9.02 28.716 9.92 27.624 10.412C27.936 10.676 28.344 11.192 28.572 11.528C29.556 10.976 30.504 10.076 31.212 9.056V11.96H32.556V9.116C33.204 10.064 34.02 10.928 34.848 11.468C35.064 11.132 35.472 10.64 35.784 10.388C34.824 9.884 33.864 8.984 33.24 8.036H35.448ZM42.84 7.196V5.72H45.372V7.196H42.84ZM39.108 7.196C39.132 6.752 39.144 6.32 39.144 5.936V5.72H41.4V7.196H39.108ZM41.4 2.996V4.388H39.144V2.996H41.4ZM45.372 4.388H42.84V2.996H45.372V4.388ZM46.788 1.64H37.728V5.924C37.728 7.604 37.62 9.74 36.312 11.18C36.636 11.348 37.212 11.84 37.44 12.104C38.304 11.168 38.736 9.848 38.952 8.54H41.4V11.888H42.84V8.54H45.372V10.34C45.372 10.556 45.288 10.628 45.06 10.628C44.844 10.628 44.052 10.64 43.38 10.604C43.56 10.976 43.788 11.588 43.836 11.972C44.916 11.984 45.648 11.96 46.14 11.72C46.62 11.504 46.788 11.12 46.788 10.352V1.64ZM56.976 5.696V5.3H57.864C58.5 5.3 58.92 5.312 59.184 5.336V3.74C58.86 3.8 58.5 3.824 57.864 3.824H56.976V2.564C56.976 2.084 57.024 1.688 57.06 1.448H55.344C55.38 1.688 55.416 2.084 55.416 2.564V3.824H52.572V2.636C52.572 2.168 52.608 1.784 52.644 1.556H50.94C50.976 1.916 51.012 2.288 51.012 2.636V3.824H49.992C49.392 3.824 48.9 3.752 48.696 3.716V5.348C48.96 5.324 49.392 5.3 49.992 5.3H51.012V6.932C51.012 7.472 50.976 7.952 50.94 8.192H52.62C52.608 7.952 52.572 7.46 52.572 6.932V5.3H55.416V5.756C55.416 8.708 54.396 9.74 52.08 10.544L53.364 11.756C56.256 10.484 56.976 8.672 56.976 5.696ZM60.744 6.332L61.5 7.844C62.976 7.412 64.5 6.764 65.736 6.116V9.956C65.736 10.484 65.7 11.24 65.652 11.528H67.548C67.464 11.228 67.44 10.484 67.44 9.956V5.108C68.604 4.34 69.756 3.404 70.668 2.504L69.372 1.268C68.592 2.216 67.224 3.416 65.988 4.184C64.656 5 62.892 5.78 60.744 6.332ZM75.768 9.848C75.768 10.328 75.72 11.048 75.648 11.528H77.52C77.472 11.036 77.412 10.196 77.412 9.848V6.452C78.708 6.896 80.508 7.592 81.744 8.24L82.428 6.584C81.324 6.044 79.02 5.192 77.412 4.724V2.948C77.412 2.456 77.472 1.928 77.52 1.508H75.648C75.732 1.928 75.768 2.528 75.768 2.948V9.848Z" fill="#FF8A00"/>
</svg>
