<svg width="579" height="174" viewBox="0 0 579 174" fill="none" xmlns="http://www.w3.org/2000/svg">
<path d="M23.913 85.3376L22.0528 84.591L21.7711 83.8788L22.0168 82.8344L21.6348 81.4001L21.8579 78.841L20.2256 78.9308C15.1953 81.5521 9.8642 83.4825 4.23233 84.722L2.07378 82.961L2.01061 81.8123L10.2404 79.298L10.0243 75.3684L10.4276 74.9824L10.0319 67.7882L10.392 66.6163L9.9455 66.2164L9.7394 62.4681L10.1324 56.3827L3.17997 56.765L0.853958 54.1642L1.01871 53.8519L1.49238 53.644L8.3843 53.265C20.8841 50.4754 33.2105 47.4731 45.3635 44.2579L47.4988 45.5958L47.522 46.019C41.1037 48.3933 34.3205 50.3833 27.1727 51.9892L26.2368 55.9215L26.9217 68.3753L26.5756 68.6975L26.9546 75.5895C26.4826 78.7686 25.7868 81.9197 24.867 85.0426L23.913 85.3376ZM34.1219 81.3198C33.5084 81.1918 33.2803 80.7193 33.4375 79.9021L34.7183 77.8306L38.1035 72.1264L32.0882 66.3933L32.0251 65.2447L32.2575 63.9585L30.5494 61.5662L38.5712 58.5783L42.1381 58.3821L42.4809 57.9994L46.2896 57.79L47.8986 57.277L50.39 58.4741L50.7016 59.7303C47.9341 63.8038 45.8146 68.2661 44.3431 73.1173L49.5776 75.6794L49.876 76.6938L49.1399 77.6439L46.359 77.7968L41.7456 75.5037L38.6633 80.0998L37.4469 81.1369L34.1219 81.3198ZM21.7195 74.1189C22.75 73.0111 23.0912 71.4966 22.743 69.5753L20.8157 68.7111L14.6314 70.931L14.2414 71.5588L14.5041 76.3348L17.0898 77.0416L21.7195 74.1189ZM40.5103 68.477L43.1707 61.7211L41.5084 61.2668C38.7585 61.9839 36.4628 63.2421 34.6213 65.0412L39.7609 69.1852L40.5103 68.477ZM22.5103 65.3435L22.7467 63.0262C21.5003 61.6798 20.0843 61.2928 18.4988 61.8651L14.1115 63.683L14.2445 66.1012L17.559 66.8285L22.5103 65.3435ZM22.387 57.5885L22.624 54.1797L20.7571 53.3122L15.0398 55.2032L14.4295 59.5421L17.5127 59.3725L22.387 57.5885ZM15.5184 46.263L12.534 43.8197L12.0622 40.7531L12.6674 39.6283L12.2518 32.0714L11.4145 27.8728C12.0305 27.3133 12.8277 27.1078 13.8061 27.2561L17.2143 28.5847C21.3934 26.657 25.7614 25.2242 30.3183 24.2864L33.7039 24.1002L35.5641 24.8468L35.9223 26.9495L34.7213 30.4719L34.9806 35.1874L35.4032 36.2557C35.5229 38.4321 34.9587 40.3025 33.7107 41.8668C30.8953 43.5983 27.807 44.7787 24.4459 45.4083L20.8185 45.6077L20.4758 45.9904L15.5184 46.263ZM30.1955 39.6953L30.4359 36.3469L27.7154 36.4965L17.1338 40.3529L16.6157 41.958L19.2313 43.2089C23.1142 42.5102 26.7689 41.339 30.1955 39.6953ZM29.6484 33.0551C30.6746 31.8668 30.9777 30.3948 30.5577 28.6392L27.9787 28.0533L16.6478 32.6179L16.2971 35.0628L18.6476 35.9037L22.8569 34.1563L26.6051 33.9501L29.6484 33.0551ZM67.8808 83.2228L65.9202 81.7541L65.4814 73.7739L65.8846 73.3879L65.6419 68.9747L66.0418 68.5282L65.7991 64.115L66.1419 63.7323L65.9059 59.4399L66.1356 57.0018L65.921 56.4072L67.2683 55.5448L69.921 56.3691L70.8566 59.0464L77.3858 58.6873L96.471 55.091L103.302 54.7153L106.62 55.503C110.799 61.6604 113.103 68.6285 113.53 76.4071L112.676 78.5158L110.577 78.9344L108.801 77.5161L108.399 70.201L103.881 58.6249L103.123 58.0603L96.7143 58.4127L96.3077 58.7382L91.6527 58.9942L83.3962 61.0249L79.2853 61.251L75.2713 62.1387L70.6767 62.3914L69.9926 66.4918L70.3184 72.4164L69.9185 72.8629L70.4438 82.4149C69.8858 83.2945 69.0315 83.5638 67.8808 83.2228ZM85.325 77.3518L85.0027 77.0057L81.2545 77.2118C79.7459 76.2437 78.8353 75.1215 78.5225 73.8451L79.089 69.8118L78.8497 65.459L79.9684 64.8517L83.9578 65.7238L88.9391 64.7828L89.2613 65.1289L93.7955 64.8796L96.8442 66.2885L97.3944 67.471L97.6304 71.7634C96.8771 73.5027 95.7793 74.8567 94.3368 75.8254L85.325 77.3518ZM92.4512 72.412L92.6683 68.6405C91.041 67.7194 89.3876 67.4263 87.7082 67.7612L83.5461 69.2635L83.3696 72.6689L84.9674 74.1576L89.5016 73.9083L92.4512 72.412ZM79.7599 53.3419L76.852 52.289L76.1643 50.8109L75.6822 42.0448L75.3706 40.7886L76.7949 40.2251L80.4993 40.3246L84.4933 39.0741L92.3526 38.6419L94.7934 40.0236L94.8699 41.4141C93.2995 42.9962 92.2762 44.9727 91.8002 47.3436L94.113 49.7025L93.5483 50.4613L90.8511 51.0341L86.9215 51.2502L79.7599 53.3419ZM86.3858 48.1264C87.9988 46.5824 88.6212 44.6684 88.2531 42.3844L86.1072 41.9566L80.2923 44.2775L80.0619 47.8072L82.6875 49.2394L86.3858 48.1264ZM67.8427 37.3217L65.2443 35.2816L65.1945 34.3748L79.1177 30.6378L79.8202 23.5651L81.9062 22.9047L84.387 25.0118L84.4602 26.3419L84.1361 29.2703L87.1888 29.6482L95.7741 28.0846L98.017 29.174L98.315 30.1884C97.2378 31.1775 95.9209 31.8563 94.3646 32.2249L87.2913 32.6138L67.8427 37.3217ZM139.334 76.9891C136.071 74.2579 134.125 70.8479 133.496 66.7591L132.864 55.2725L133.15 54.9536L132.894 50.2986L133.382 48.1494L133.159 44.0989C133.972 43.4478 134.888 43.1953 135.907 43.3414L138.186 45.0958L138.323 47.5745L137.333 51.631L137.502 54.7143L137.156 55.0365L137.549 62.1702L137.316 63.4564L137.635 63.7421L137.821 67.1276L139.011 71.1249L140.22 71.0584L142.38 70.6365L143.403 72.7025C142.655 73.7948 142.22 75.0719 142.098 76.5339L139.334 76.9891ZM157.531 63.8607C155.677 63.9627 153.997 63.5497 152.491 62.6219L151.75 60.1765C152.52 59.4873 153.536 59.2091 154.796 59.3419L159.79 59.7343C161.454 59.845 162.804 59.7707 163.841 59.5116L164.731 59.1594L168.848 60.1458L169.27 62.3056L167.143 63.3321L160.917 63.6745L159.691 63.4387L157.531 63.8607ZM149.716 51.8596L147.802 50.1457L147.716 48.5739C152.963 46.2236 158.541 44.3605 164.448 42.9846L166.375 43.8488L167.116 46.2942C166.153 47.1557 164.951 47.7271 163.511 48.0084L160.428 48.178C156.738 49.432 153.167 50.6592 149.716 51.8596ZM231.854 72.3255L227.129 71.312L217.517 71.8406L217.191 71.434L206.732 72.0092L206.272 72.459L202.705 72.6551L200.005 73.1675L196.334 72.581L193.818 73.1439L191.455 70.9696L190.9 60.8735L190.548 59.9833L190.837 59.7248L190.228 48.6615L188.895 43.1561L191.915 41.8379L193.869 42.0942L196.133 41.3633L196.328 41.5952L204.187 41.163C205.911 37.9554 206.822 34.3074 206.92 30.219L204.744 30.3387L195.134 33.1109L192.766 31.9676L191.881 30.1972C196.362 28.6167 201.266 27.3768 206.593 26.4774L210.825 26.2447L211.406 25.7883L222.651 25.1699L225.327 26.4174L225.394 27.6265L224.557 28.9459L223.727 29.2948L218.588 29.5774L216.779 28.646L212.063 28.9054C211.689 32.4025 210.978 35.6353 209.928 38.6036L212.423 39.8611L223.236 36.9016L228.979 36.5857L234.502 38.8894L234.875 40.1424L234.161 42.6071L235.189 61.2879L234.846 61.6706L235.118 66.6279C235.475 68.7104 235.086 70.4499 233.95 71.8464L231.854 72.3255ZM216.424 68.505L217.707 67.5854C216.237 66.5748 215.462 65.344 215.382 63.8931L210.234 62.9028L208.32 67.7985L212.83 69.309L214.136 68.8127L215.792 69.1461L216.424 68.505ZM204.675 68.7872L205.425 68.079L203.516 64.2425L204.213 61.4754L203.857 60.5248L204.133 60.0245L203.88 55.4299L204.623 49.0826L204.387 44.7903L203.618 44.0443L197.33 44.39L194.079 45.9029L194.315 50.1953L194.637 50.5414L195.318 62.9348L195.822 63.2709L196.055 67.5028L196.725 69.7702L203.153 69.7805L204.675 68.7872ZM229.822 67.3437L231.036 64.0631L229.759 40.8482C228.174 39.9651 226.602 39.6675 225.041 39.9555L219.152 42.0379L218.872 44.6607L219.897 48.9703L220.576 61.3032L220.988 63.2816L220.441 67.6777L221.713 68.7598L228.242 68.4007L229.822 67.3437ZM215.391 59.6479L216.025 54.6407L215.27 53.045L212.144 52.4286L208.226 55.0696L208.016 58.962C209.768 60.6848 211.765 61.3431 214.006 60.9368L215.391 59.6479ZM214.87 49.0649L215.093 46.5058L213.701 43.2472L210.326 42.5233C209.068 44.6541 208.34 46.8367 208.139 49.0712L209.673 50.5028L214.268 50.2501L214.87 49.0649ZM262.233 71.2007C260.695 70.4363 259.886 69.3286 259.806 67.8777L260.795 64.9127L260.253 55.0584L259.767 53.933L259.971 49.9197L259.528 49.5802L259.328 45.9529L258.946 45.6101L258.656 40.3505L257.748 37.0653L257.552 33.4985L267.647 21.9071L270.972 21.7242L272.554 22.9107L272.607 23.878C268.859 27.0351 265.541 31.0176 262.652 35.8254L265.517 36.0923L269.286 35.1574L285.246 34.2797L288.036 35.3997L288.488 38.1035L288.019 42.7985L288.405 43.2018L288.833 51.0005L288.494 51.4437L288.959 59.9074L289.525 63.5753L288.066 65.7172L287.099 65.7704L286.54 67.7415L282.345 68.6393L271.058 67.3802L265.254 67.6994L264.335 70.8425L262.233 71.2007ZM283.707 64.7441L284.414 62.1585L283.949 53.6947L283.009 52.0485L282.371 51.4772L278.26 51.7032L277.874 51.3L271.345 51.6591L269.989 51.2486L269.592 51.7555L265.3 51.9915L264.335 53.1967L264.644 58.8191L265.087 59.1585L265.32 63.3904L267.271 64.6778L273.074 64.3587L279.076 65.4233L283.126 65.2006L283.707 64.7441ZM283.193 47.6724L283.863 45.5132L283.413 43.9613L283.636 41.4023L282.671 38.1809L281.966 37.492L275.195 37.8644L274.859 38.3679L269.72 38.6505L263.553 40.0812L262.928 40.8432L263.261 46.8888L264.747 48.5655L268.919 48.3361L270.105 47.8464L270.43 48.253L274.904 48.007L275.226 48.3531L280.425 48.0672L282.565 48.374L283.193 47.6724ZM325.492 62.6281L323.229 61.176C319.873 53.801 317.249 46.1633 315.36 38.263L318.772 37.4689L320.766 39.5423L320.939 42.686C322.286 48.0693 324.456 52.983 327.45 57.4269L329.091 58.61L329.194 60.4841L328.314 62.1092L325.492 62.6281ZM353.187 55.7083L351.884 55.1735L350.908 53.9538L350.426 45.1878L350.043 44.845L349.87 41.7013L347.78 32.3567C348.568 31.2623 349.72 30.8957 351.236 31.257L352.851 33.048L353.04 36.494L354.233 40.5518L354.406 43.6955L354.725 43.9811L355.124 51.2358L355.563 53.6978L354.742 55.3196L353.187 55.7083ZM384.528 63.2624L381.926 61.1618L381.847 59.7109L382.456 57.5551L382.173 52.4164L382.519 52.0941L382.253 47.2577L382.586 46.6936L382.19 39.4994L379.907 38.7761C378.38 42.6196 376.608 46.0522 374.591 49.0737L372.855 49.4724C371.185 48.5132 370.507 47.2164 370.822 45.5821C376.066 37.2894 380.718 28.8879 384.777 20.3774L386.107 20.3042L388.394 21.088L389.172 23.107L384.812 29.835L385.052 34.1878L386.067 37.2245L386.573 46.4138L386.237 46.9173L386.539 52.4188L386.149 54.1382L386.565 55.0855L386.219 55.4077L386.438 59.3978L387.038 61.4871L386.208 62.9275L384.528 63.2624ZM400.38 58.2066L398.128 54.7528L398.525 54.2458L404.087 53.94C405.938 50.8467 406.775 47.6879 406.598 44.4636L406.315 39.3249L402.812 38.4866L393.464 41.6082L391.228 39.5482L391.172 38.5204C395.324 36.8367 400.136 35.3998 405.609 34.2094L405.81 30.1356L404.876 24.1838L406.979 23.8256L409.027 24.6832L409.091 24.7403L409.48 31.8136L412.068 33.6723L415.874 32.3109L419.864 32.0914L423.343 33.598L423.567 34.374L422.555 35.8243L417.235 36.1169L416.832 36.5029L412.6 36.7356L410.235 38.9274L410.673 46.9075L410.496 51.4045L413.884 52.3703L414.399 51.7963L420.384 51.4671L422.3 53.2415L422.354 54.2088L421.386 55.3535L412.68 55.8323L406.247 57.9446L403.5 57.6105L400.38 58.2066ZM459.253 62.4881L456.211 60.1086L456.171 59.3831L458.132 55.3338L457.912 51.3437L456.987 48.8478L455.328 48.4539C454.201 49.284 452.927 49.637 451.505 49.5131L449.928 47.2956C451.955 45.9309 454.446 44.9248 457.402 44.2771L458.106 40.5394L455.759 39.7589C450.684 42.3019 445.77 44.4721 441.018 46.2696L438.423 44.29L438.37 43.3227C444.224 40.2518 450.657 37.7757 457.669 35.8943L458.554 33.2382L456.351 32.8743C453.77 34.4715 451.117 35.4664 448.389 35.8589L445.76 34.3662L445.395 33.2342L458.482 28.6336L458.316 25.6109L455.999 25.3745L450.292 26.3553C449.063 26.0591 448.214 25.3175 447.744 24.1305L447.415 18.1454L448.566 14.8077L451.448 14.2854L453.583 14.5317L456.822 12.777L457.149 9.909L454.121 8.8628L449.341 10.1566L445.955 10.3427L443.612 8.5312L443.559 7.5639C444.726 6.7316 446.115 6.2712 447.727 6.1825L452.443 5.9232L454.576 5.0176L455.037 3.4763L454.149 0.553831L455.637 0.0475311L458.545 1.10038L459.833 3.5763L462.718 4.206L466.047 2.99208L470.46 2.74937L472.481 4.2148L472.551 5.4844C470.676 6.679 468.348 7.3527 465.567 7.5057L462.397 7.1949L460.663 8.7456L460.763 10.5593C461.801 11.7958 462.995 12.195 464.346 11.7569L469.505 10.7455L471.755 11.9558L472.157 13.7529L471.997 17.4606L472.855 19.839C471.947 21.708 470.15 22.4739 467.463 22.1365L464.3 21.9467L461.937 24.1989L462.021 25.7103L463.39 27.4542L465.143 27.3578L468.062 26.4089L475.438 26.0033L476.499 26.5513L476.751 31.146L481.647 33.0597L481.955 34.2555C480.589 35.1392 478.858 35.6386 476.762 35.7539L474.988 43.1887L470.631 45.5507L465.734 45.82L462.472 47.1515L461.886 50.822L463.363 57.8355L461.567 61.5725L459.253 62.4881ZM470.559 40.9461L471.7 37.427L470.434 36.4657L466.202 36.6984L462.379 38.8491L461.702 41.9789C463.285 42.8217 464.857 43.0991 466.417 42.8111L470.559 40.9461ZM471.981 32.6211L472.355 30.5994C471.4 29.3988 470.065 29.0073 468.349 29.4251L462.75 31.249L462.402 33.7542L465.834 34.4144L471.981 32.6211ZM457.563 20.7406L458.37 18.877C457.569 17.5466 456.493 17.0803 455.14 17.4781L452.281 18.4236L451.937 20.9893L455.154 22.1464L457.563 20.7406ZM467.278 17.6595L467.218 16.5713L467.628 15.2147L464.002 14.3226L461.902 15.8328L461.528 17.8544L463.898 19.0581L467.278 17.6595ZM524.699 53.9773C520.265 54.2211 516.546 52.748 513.541 49.5579C511.836 47.2261 510.895 44.4481 510.717 41.2238C511.751 34.2946 514.663 27.7068 519.454 21.4604L518.305 21.5235C512.418 23.2622 506.453 24.7019 500.412 25.8427C499.082 25.1881 498.382 24.216 498.311 22.9263L498.752 22.1138L502.923 21.8843C510.642 19.6407 518.503 17.7733 526.506 16.2821L528.309 17.0925L529.212 19.1652C523.782 23.3447 519.7 28.5011 516.965 34.6345C515.828 36.7587 515.122 38.9805 514.845 41.3L515.034 44.746L517.118 48.4516C518.676 49.5787 520.619 49.9974 522.948 49.7076L524.382 49.3255L527.028 51.1205L527.104 52.511C526.629 53.4264 525.827 53.9152 524.699 53.9773ZM544.614 24.6852C543.685 23.9682 543.095 23.1517 542.842 22.2358L542.54 16.7344L540.191 7.1008C540.473 6.3576 541.144 6.0579 542.203 6.2018L544.083 7.3112C544.966 9.4052 545.676 11.6502 546.212 14.0463L546.698 22.8728L546.23 24.2932L544.614 24.6852ZM534.787 24.6192L533.394 23.5437L531.49 17.5846L531.29 13.9573L529.41 7.3298C529.896 6.6159 530.709 6.3286 531.849 6.4681L534.165 7.796L535.428 13.1233L535.615 16.5088L537.508 23.3781L536.782 24.5095L534.787 24.6192ZM576.876 50.077L574.028 49.0208L566.697 35.9017C567.51 35.2506 568.547 34.9914 569.808 35.1242C571.965 36.8651 573.553 39.2842 574.573 42.3813C576.582 44.3729 578.059 46.596 579.002 49.0505C578.643 49.8787 577.935 50.2209 576.876 50.077ZM19.7964 173.672L17.2119 170.782L18.6568 169.49L22.8887 169.257C30.3789 167.996 37.6466 166.363 44.6917 164.359C45.7325 164.908 46.2862 165.787 46.3527 166.996C43.7835 168.795 40.8979 169.984 37.6957 170.565L34.6125 170.734L28.2873 172.598L24.9623 172.781L20.7032 173.622L20.3843 173.336L19.7964 173.672ZM37.5284 145.47L36.5052 143.404L32.4653 142.716L29.4425 142.883L25.7215 142.481L23.3199 142.916L22.3964 142.664L17.2471 143.856L14.9616 140.89C15.5108 139.849 16.4907 139.289 17.9013 139.212L22.7982 138.943L23.9907 138.574L24.3096 138.859L29.5087 138.574C33.8031 138.742 37.9046 139.446 41.8132 140.686L42.6279 143.37C41.2545 144.861 39.5547 145.56 37.5284 145.47ZM78.1027 169.859C76.4502 169.95 74.9851 169.404 73.7073 168.221L72.9864 166.138L72.8002 162.752C72.9328 157.813 74.122 153.341 76.3677 149.337C81.3439 143.525 87.5086 140.215 94.8621 139.406C98.138 139.428 101.072 140.601 103.666 142.924C109.066 147.761 112.461 153.618 113.849 160.495L114.102 165.09L112.976 166.667L111.404 166.754C109.972 166.428 109.116 165.566 108.836 164.166C109.574 162.873 109.803 161.526 109.524 160.126C107.989 154.268 104.835 149.106 100.061 144.638L97.5163 143.565C95.5237 151.437 92.0535 158.904 87.1057 165.968C85.553 167.872 83.7813 169.102 81.7905 169.656L78.1027 169.859ZM81.5544 165.364C86.3401 159.764 89.9898 153.722 92.5033 147.237L93.3011 144.1L91.696 143.582C87.5124 145.429 83.6631 148.208 80.148 151.919C77.9537 156.122 76.8965 160.789 76.9764 165.918C77.6253 166.691 78.448 166.949 79.4445 166.692L81.5544 165.364ZM142.421 171.718L139.403 168.67L140.013 165.423L139.797 161.494L139.358 160.123L139.704 159.801L138.869 144.626L136.347 143.977L133.902 144.718L131.099 142.264L131.049 141.358L138.023 139.155L138.401 136.102L136.959 131.937C137.976 131.315 139.053 131.054 140.19 131.153C141.945 132.916 142.902 135.248 143.061 138.15L146.893 138.364L150.095 137.036L150.79 136.452L150.517 131.494L150.86 131.112L150.641 127.122L150.269 125.869C150.71 125.076 151.379 124.736 152.274 124.849L154.413 126.247L155.184 129.237L154.801 135.503C156.421 136.304 158.032 136.559 159.633 136.269L161.616 134.826L162.123 134.131L161.598 124.579C162.373 123.97 163.248 123.72 164.225 123.828L166.319 125.532L166.486 128.555L165.845 133.441L168.612 134.138L173.166 133.159L175.46 134.064L176.197 136.449C175.487 137.499 174.516 137.855 173.285 137.519L171.868 137.112L166.856 138.6L166.001 141.8L166.37 142.993L166.081 143.251L166.41 149.236L167.692 151.591L166.2 153.129L161.971 154.513L157.678 154.75L155.965 155.571L152.579 155.758C151.205 155.025 150.376 153.918 150.093 152.438L151.094 150.806L150.785 145.184L149.756 141.905L146.277 141.49L143.791 142.597L143.018 143.974L143.417 151.228L143.809 151.753L144.052 156.166L143.709 156.549L143.952 160.962L144.893 164.852L147.634 165.065L151.043 164.21L162.348 163.588L162.731 163.931L167.084 163.692L168.575 163.246L171.255 163.462L171.779 163.07L175.77 162.85L178.21 164.232L178.29 165.683L177.43 166.579L160.926 167.487L159.757 167.187L156.815 167.713L155.223 167.437C150.453 168.184 146.186 169.611 142.421 171.718ZM161.604 150.046L161.554 149.14L162.142 147.713L161.72 140.035L159.675 139.238L155.211 140.756L154.608 144.125L155.057 145.677L154.844 148.417L156.256 150.947L158.879 151.227L161.604 150.046ZM225.272 166.556L223.625 164.16L223.796 163.969L223.567 159.797L223.913 159.475L223.67 155.062L220.771 144.246L210.852 140.304L208.65 144.367L211.406 145.974L211.598 146.145L211.917 151.949L211.107 158.178L211.51 165.493L209.182 166.167L207.221 164.698L206.645 161.941L207.755 153.451L207.522 149.219L207.93 146.71L205.874 146.823L199.502 155.542L198.051 155.622L195.583 153.756L195.527 152.729L209.135 135.547L206.623 135.079L202.186 135.99L199.463 133.896L199.254 130.088L198.868 129.684L198.27 118.802L198.616 118.48L198.247 111.77L200.285 111.354L204.52 112.273L214.956 110.184L215.339 110.526L221.384 110.194L225.713 111.714L228.228 117.761L228.617 124.834C228.768 127.575 228.196 130.032 226.9 132.205L225.54 132.826L225.221 132.54L220.022 132.826L215.335 134.721L214.128 138.123C220.389 140.972 226.872 142.718 233.577 143.36L239.139 143.054L241.889 144.54L241.929 145.265L241.461 146.686L236.141 146.978L226.302 145.579L226.465 148.541L228.292 154.201L228.731 162.181L227.613 166.124L225.272 166.556ZM209.9 130.715L210.407 125.593C209.064 124.697 207.676 124.45 206.243 124.852L202.95 126.731L202.673 129.414L204.133 131.699L208.506 131.822L209.9 130.715ZM223.426 128.576L223.37 127.549L224.094 124.174C221.593 122.815 218.919 122.336 216.071 122.735L214.707 123.295L214.31 124.894L214.526 128.823L215.617 129.915L219.97 129.676L223.426 128.576ZM209.57 120.303C210.428 119.003 210.612 117.558 210.12 115.968L206.624 115.25L203.191 116.773L202.48 121.481L206.671 121.615L209.57 120.303ZM223.703 119.283L223.99 117.873L222.148 114.154L220.65 113.387L215.512 113.67C214.006 114.966 213.656 116.683 214.461 118.821C217.127 119.524 219.978 119.913 223.015 119.988L223.703 119.283ZM278.72 160.403C274.961 160.407 271.582 159.239 268.583 156.897C267.278 155.958 266.681 154.657 266.791 152.994C269.241 148.291 272.308 143.776 275.991 139.45L276.596 139.417L276.509 137.845C274.219 137.365 272.185 136.022 270.406 133.815C269.066 132.231 268.238 130.417 267.924 128.373L264.824 128.24L264.538 128.559L259.278 128.848L257.57 126.456C258.13 125.617 259.041 125.263 260.301 125.396L263.401 125.529L267.1 124.416L267.634 123.113L267.395 118.76L266.604 115.408L269.066 114.97L270.644 116.096L271.049 117.953L270.797 118.877L271.119 119.223L271.289 122.306L273.18 122.505L278.622 120.023L278.874 119.099L280.41 118.348L284.158 118.142L285.739 119.328L285.825 120.9C281.615 122.991 277.17 124.873 272.492 126.545L272.21 126.924L272.379 130.008L275.699 134.13L279.187 135.818C282.109 132.343 285.614 130.29 289.703 129.661L291.647 130.828L291.697 131.735L283.61 136.849L283.357 137.772L288.571 142.154L289.664 145.49L288.877 147.716L287.036 148.424L284.76 146.73L284.657 144.856L284.872 143.267L282.224 140.32L280.411 140.42C276.284 144.771 273.228 149.486 271.244 154.568C273.603 156.298 276.334 157.077 279.437 156.907L282.521 156.737C287.613 155.244 292.468 153.118 297.087 150.357L298.631 150.879L299.416 153.019C294.63 156.395 289.262 158.772 283.315 160.15L278.72 160.403ZM324.463 160.798L322.297 160.007L321.812 157.79L321.446 151.14L321.849 150.754L321.477 143.983L318.468 143.3L315.526 143.825C314.111 143.095 313.45 142.1 313.542 140.842L320.936 138.555L321.507 137.918L321.224 132.779L319.294 131.854L316.737 132.783C315.242 132.057 314.252 130.959 313.767 129.49C316.185 129.357 318.561 128.458 320.895 126.794L321.035 123.815L320.221 120.039L320.217 119.979L323.784 119.783C324.968 121.456 325.764 123.433 326.172 125.715L328.325 126.264L328.661 125.76L332.349 125.558L334.215 126.425L334.568 127.315C332.231 128.94 329.391 129.844 326.045 130.028L325.484 136.365L329.108 137.196C330.541 136.067 332.252 135.568 334.24 135.701C335.247 137.101 336.739 137.403 338.717 136.607C342.531 135.387 346.412 134.284 350.359 133.299L350.931 132.661L350.701 128.49L348.781 127.746L345.19 128.611L342.501 127.122L341.736 125.344L342.942 124.126C338.888 119.498 336.152 114.959 334.735 110.509C338.048 108.265 341.814 106.542 346.033 105.34C347.08 105.282 347.887 105.622 348.453 106.359L348.123 108.075L350.977 110.344L353.475 118.271L352.409 119.846L351.442 119.899C349.276 117.269 347.683 114.042 346.665 110.217L346.699 108.639L339.389 112.436L340.472 114.499L346.566 123.866L347.258 124.313L351.248 124.094L351.594 123.771L355.524 123.555L357.909 122.818L356.939 121.719L356.137 120.368C356.833 116.126 358.025 112.078 359.714 108.226L361.084 107.787L363.801 108.668L364.136 110.348C362.143 113.813 360.547 117.862 359.346 122.496L363.15 124.409L363.217 125.618L359.639 126.725L355.75 126.575C354.646 127.808 354.27 129.425 354.622 131.427C355.372 132.558 356.444 132.944 357.839 132.584L360.943 131.686L363.733 132.806L364.23 134.113C363.305 134.932 362.076 135.383 360.545 135.468L356.615 135.684L354.935 137.11L354.788 141.06L355.124 147.166C356.626 148.013 358.237 148.268 359.957 147.931L361.942 146.548L362.612 144.389L361.741 140.677L365.096 139.947L366.167 140.676L366.45 145.815L366.833 146.158L367.232 153.413L366.185 157.533L363.978 158.2L362.225 157.205L362.119 155.27L362.665 150.874L359.915 150.48L354.436 152.297L354.13 153.345L351.651 153.481L349.697 153.225L344.658 155.321L341.212 155.511L338.483 153.296L338.446 152.631L339.458 144.571L342.101 144.122L343.72 144.882L344.129 146.8L343.908 150.511L346.608 151.09L350.518 149.42L351.09 148.782L350.81 143.704L351.21 143.258L350.921 137.998L348.507 137.1C345.539 138.274 342.572 139.084 339.605 139.53L336.097 137.479C332.836 139.195 329.621 140.645 326.452 141.83L325.881 142.468L326.429 152.443L326.112 154.401L326.559 154.8L326.815 159.456L324.463 160.798ZM409.966 153.124L407.67 151.068L407.587 149.556C409.564 148.032 410.894 146.12 411.576 143.819L413.414 137.532L413.247 134.51L412.61 133.938L409.224 134.125C404.362 135.403 400.081 137.679 396.381 140.955L394.34 143.554L392.527 143.653L390.61 141.879L390.494 139.763L390.779 139.444L390.507 134.487L390.792 134.168L390.54 129.573L390.759 128.045L389.566 122.896L391.649 122.175L393.529 123.284L394.633 125.71L395.018 132.723L394.733 133.042L394.919 136.427L395.842 136.68C399.375 134.019 403.255 132.169 407.483 131.128L412.077 130.875C413.741 130.986 415.216 131.713 416.503 133.057L417.556 134.576L417.743 137.961C416.761 142.907 414.958 147.615 412.334 152.084L409.966 153.124ZM406.961 121.636L404.39 118.988C400.443 117.79 396.548 116.064 392.705 113.81L392.014 112.271C392.574 111.432 393.484 111.078 394.745 111.211C400.021 113.791 405.366 116.165 410.781 118.334L411.133 119.224L410.011 120.862L406.961 121.636ZM467.563 150.745C464.453 150.067 461.623 148.586 459.071 146.3C454.903 141.8 452.443 136.397 451.692 130.091L450.768 129.839C449.816 130.902 448.614 131.473 447.164 131.553L445.602 130.729L444.828 127.679L450.818 125.228L451.034 123.639L449.406 116.088L452.073 114.971L454.402 117.633L454.183 119.161L454.505 119.507L454.688 122.832L456.233 123.353L467.147 120.024L467.432 119.705L467.06 112.934C467.833 112.285 468.849 112.027 470.11 112.16C471.173 113.112 471.75 114.415 471.841 116.067L471.389 118.881L473.505 118.765L474.073 118.067L478.365 117.831L481.432 117.359C482.486 118.15 482.946 119.155 482.811 120.376L481.954 121.332L478.87 121.502L475.293 122.608L473.1 122.426L471.675 124.081L471.994 129.884L470.828 137.346L468.729 137.765L467.47 136.925L467.014 134.16L467.904 128.29L467.702 124.602L466.459 124.064L456.167 127.662L455.934 128.948C456.473 135.063 458.82 140.25 462.975 144.509C465.103 146.454 467.693 147.241 470.745 146.871L472.888 146.147L475.34 146.618L475.406 147.828C473.292 149.803 470.677 150.776 467.563 150.745ZM516.231 150.312L514.945 150.08C514.041 149.078 513.454 147.959 513.184 146.72C510.26 146.477 507.776 145.057 505.734 142.461L505.378 141.51C505.283 136.098 507.121 131.308 510.894 127.139C512.644 125.142 514.651 123.779 516.915 123.048L520.361 122.858C522.036 123.171 523.638 124.012 525.169 125.383C526.55 126.965 527.494 128.692 528.001 130.564L528.174 133.708C526.184 139.436 522.924 144.83 518.391 149.89L516.231 150.312ZM517.428 143.394L517.391 142.729C520.756 139.229 522.821 135.255 523.587 130.807L521.205 127.178L518.71 127.012L515.35 128.773C511.998 132.515 510.359 136.89 510.433 141.899C511.348 143.102 512.536 143.764 513.998 143.886L514.888 143.534L516.477 143.75L517.428 143.394Z" fill="white"/>
</svg>
